<?xml version="1.0" encoding="UTF-8"?>
<svg version="1.1" xmlns="http://www.w3.org/2000/svg" width="3364" height="1026">
<path d="M0 0 C1110.12 0 2220.24 0 3364 0 C3364 338.58 3364 677.16 3364 1026 C2253.88 1026 1143.76 1026 0 1026 C0 687.42 0 348.84 0 0 Z " fill="#FDFDFD" transform="translate(0,0)"/>
<path d="M0 0 C960.96 0 1921.92 0 2912 0 C2912 176.55 2912 353.1 2912 535 C1951.04 535 990.08 535 0 535 C0 503.98 0 472.96 0 441 C48.51 441 97.02 441 147 441 C147 392.49 147 343.98 147 294 C178.02 294 209.04 294 241 294 C241 276.18 241 258.36 241 240 C209.98 240 178.96 240 147 240 C147 191.49 147 142.98 147 93 C98.49 93 49.98 93 0 93 C0 62.31 0 31.62 0 0 Z " fill="#1D4989" transform="translate(382,80)"/>
<path d="M0 0 C21.615 -0.0825 43.23 -0.165 65.5 -0.25 C72.27724609 -0.28641602 79.05449219 -0.32283203 86.03710938 -0.36035156 C94.43457031 -0.37841797 94.43457031 -0.37841797 98.38928223 -0.3817749 C101.1002122 -0.38784196 103.81034459 -0.40017813 106.52111816 -0.42230225 C130.14772867 -0.60642849 152.5221175 1.36732339 175 9 C176.16917969 9.39058594 177.33835937 9.78117188 178.54296875 10.18359375 C202.56662714 18.77353022 219.80962896 37.61925791 231 60 C235.79945982 70.31160045 238.90345426 80.82921574 241 92 C241.18022705 92.93038086 241.3604541 93.86076172 241.54614258 94.81933594 C243.01610509 103.19272131 243.27821239 111.32289328 243.20581055 119.79296875 C243.18752062 121.99751419 243.18530214 124.2016363 243.18554688 126.40625 C243.15831224 137.86458244 242.9724994 149.35146148 240.375 160.5625 C240.20315186 161.31007568 240.03130371 162.05765137 239.85424805 162.82788086 C235.27385731 181.81950526 228.08932661 201.17868007 215 216 C214.31292969 216.81726563 213.62585937 217.63453125 212.91796875 218.4765625 C198.64732008 235.0215177 179.5820383 244.81505225 158.3125 249.1875 C157.56009033 249.34250977 156.80768066 249.49751953 156.0324707 249.65722656 C138.01380707 253.08437527 120.115161 253.27861128 101.83418274 253.20256042 C98.5946192 253.19099099 95.35506018 253.1906246 92.11547852 253.18920898 C82.7019671 253.17880172 73.2884816 253.15087946 63.875 253.125 C42.79625 253.08375 21.7175 253.0425 0 253 C0 169.51 0 86.02 0 0 Z " fill="#FEFEFE" transform="translate(1087,221)"/>
<path d="M0 0 C34.77375 -0.061875 34.77375 -0.061875 70.25 -0.125 C77.53352539 -0.14320801 84.81705078 -0.16141602 92.32128906 -0.18017578 C101.30810547 -0.18920898 101.30810547 -0.18920898 105.53314209 -0.19088745 C108.44479506 -0.19272901 111.35637294 -0.2001354 114.26800537 -0.21115112 C182.87394666 -0.45883885 182.87394666 -0.45883885 207.3125 22.8125 C218.36779917 34.39340769 223.17763139 47.51944217 223.1875 63.25 C223.19974609 64.26191406 223.21199219 65.27382813 223.22460938 66.31640625 C223.25655487 82.73639194 216.85427111 95.88360712 205.625 107.75 C201.49511883 111.70740354 196.75747095 114.85068824 192 118 C193.05058594 118.49628906 194.10117188 118.99257813 195.18359375 119.50390625 C212.89628502 128.01097863 224.0275157 137.90123592 231.0390625 156.80078125 C236.4185334 174.97534883 233.31487748 198.17214337 224.5390625 214.76171875 C213.23340469 233.79025549 193.88560811 244.00533689 173.125 249.8125 C154.32071762 253.7480934 135.18993713 253.27218128 116.08544159 253.20256042 C112.39399397 253.19100759 108.70257434 253.19062548 105.0111084 253.18920898 C94.27822265 253.17879376 83.54535963 253.15087142 72.8125 253.125 C48.784375 253.08375 24.75625 253.0425 0 253 C0 169.51 0 86.02 0 0 Z " fill="#FDFEFE" transform="translate(2003,221)"/>
<path d="M0 0 C25.41 0 50.82 0 77 0 C88.56552419 17.34828629 88.56552419 17.34828629 92.125 22.875 C92.56618164 23.55804199 93.00736328 24.24108398 93.46191406 24.94482422 C98.27067161 32.39986948 103.03852656 39.88114976 107.81494141 47.35693359 C112.9464354 55.37828801 118.1368912 63.35947621 123.35009766 71.32788086 C128.66600988 79.46355603 133.90668534 87.64611186 139.13598633 95.83764648 C143.96888073 103.40349482 148.84202957 110.94199916 153.75244141 118.45776367 C154.24019043 119.20517822 154.72793945 119.95259277 155.23046875 120.72265625 C155.64707764 121.35953369 156.06368652 121.99641113 156.49291992 122.65258789 C158.6941782 126.08124468 160.84054045 129.54486472 163 133 C163.495 67.165 163.495 67.165 164 0 C190.4 0 216.8 0 244 0 C244 83.49 244 166.98 244 253 C217.6 253 191.2 253 164 253 C160.7 247.72 157.4 242.44 154 237 C151.53285158 233.17853398 149.05892632 229.36452859 146.5625 225.5625 C145.26668775 223.58218784 143.97111658 221.6017179 142.67578125 219.62109375 C142.0513916 218.66702637 141.42700195 217.71295898 140.78369141 216.72998047 C138.2610461 212.86901417 135.75325676 208.99855637 133.25 205.125 C132.81179932 204.44703369 132.37359863 203.76906738 131.92211914 203.07055664 C131.05147602 201.72322144 130.18095069 200.37581012 129.31054688 199.02832031 C127.04223201 195.51767204 124.77092702 192.00895887 122.5 188.5 C121.58331985 187.08334206 120.66665316 185.66667541 119.75 184.25 C119.29625 183.54875 118.8425 182.8475 118.375 182.125 C103.25 158.75 103.25 158.75 101.87329102 156.62231445 C100.96237502 155.21456463 100.05140552 153.80684943 99.14038086 152.39916992 C96.76027483 148.72136682 94.38127524 145.0428543 92.00390625 141.36328125 C91.51148437 140.60144531 91.0190625 139.83960938 90.51171875 139.0546875 C89.5751736 137.60569312 88.63895296 136.15648893 87.703125 134.70703125 C87.27644531 134.04703125 86.84976563 133.38703125 86.41015625 132.70703125 C86.04027588 132.1344458 85.67039551 131.56186035 85.28930664 130.97192383 C83.54414707 128.30279794 81.76894709 125.65342064 80 123 C79.67 165.9 79.34 208.8 79 253 C52.93 253 26.86 253 0 253 C0 169.51 0 86.02 0 0 Z " fill="#FEFEFE" transform="translate(2561,221)"/>
<path d="M0 0 C27.39 0 54.78 0 83 0 C83 28.05 83 56.1 83 85 C108.74 85 134.48 85 161 85 C161 56.95 161 28.9 161 0 C188.72 0 216.44 0 245 0 C245 83.49 245 166.98 245 253 C217.28 253 189.56 253 161 253 C161 220.66 161 188.32 161 155 C135.59 155 110.18 155 84 155 C84 187.34 84 219.68 84 253 C56.28 253 28.56 253 0 253 C0 169.51 0 86.02 0 0 Z " fill="#FDFDFE" transform="translate(792,221)"/>
<path d="M0 0 C26.73 0 53.46 0 81 0 C81.33 27.06 81.66 54.12 82 82 C85.465 78.04 85.465 78.04 89 74 C90.82605185 71.99334962 92.65883385 69.99279159 94.5 68 C97.52004872 64.7221859 100.52204137 61.43416732 103.4375 58.0625 C107.06212089 53.87890143 110.83385067 49.8356539 114.59741211 45.77758789 C117.27401038 42.88635872 119.92311179 39.98110596 122.5 37 C125.58897307 33.42648214 128.78842213 29.96288886 132 26.5 C135.23129787 23.01553847 138.45035962 19.52958492 141.5625 15.9375 C142.07399094 15.37653625 142.58548187 14.81557251 143.11247253 14.23760986 C145.11347432 11.95423926 145.11347432 11.95423926 146.95820618 9.03167725 C150.82878313 3.78340851 154.05751755 -0.02005117 160.73519897 -1.05725098 C166.58936306 -1.54289298 172.42865208 -1.35133812 178.29296875 -1.171875 C180.45196289 -1.14946193 182.61101854 -1.1323953 184.77009583 -1.12042236 C190.42208726 -1.07484804 196.07031114 -0.95720088 201.7208252 -0.82397461 C207.49891192 -0.70067729 213.27761441 -0.6462977 219.05664062 -0.5859375 C230.37273902 -0.45767461 241.6860549 -0.25318053 253 0 C252.04910439 1.11812749 251.09695694 2.23519044 250.14428711 3.35180664 C249.6141954 3.97398575 249.0841037 4.59616486 248.53794861 5.23719788 C245.99537302 8.15150699 243.21464138 10.80457457 240.44140625 13.49609375 C238.56992006 15.41548998 236.8505598 17.338869 235.12109375 19.37890625 C228.68785466 26.79429285 221.50714385 33.54507866 214.53369141 40.44580078 C206.28103479 48.48535505 206.28103479 48.48535505 198.515625 56.984375 C192.87483482 63.63907937 186.44511699 69.6185159 180.25 75.75 C177.62729993 78.3460479 175.0079765 80.945436 172.390625 83.546875 C171.79372864 84.13547302 171.19683228 84.72407104 170.58184814 85.33050537 C166.45397803 89.38251233 166.45397803 89.38251233 163 94 C163.1121671 98.51659536 165.54515686 101.67898959 168.0625 105.25 C168.97903633 106.58684898 169.89290403 107.92552987 170.8046875 109.265625 C171.31225586 110.01134766 171.81982422 110.75707031 172.34277344 111.52539062 C175.53877714 116.29773794 178.60362992 121.15476853 181.6875 126 C188.8224882 137.18704019 196.05307426 148.30882618 203.31298828 159.41503906 C207.12422014 165.25488319 210.90571684 171.11400073 214.68945312 176.97167969 C216.95776799 180.48232796 219.22907298 183.99104113 221.5 187.5 C222.41668015 188.91665794 223.33334684 190.33332459 224.25 191.75 C224.70375 192.45125 225.1575 193.1525 225.625 193.875 C240.75 217.25 240.75 217.25 242.12695312 219.37817383 C243.03692015 220.78438354 243.94707416 222.19047226 244.85742188 223.59643555 C247.25319864 227.29708571 249.64498739 231.00023776 252.03125 234.70703125 C252.52818359 235.47789062 253.02511719 236.24875 253.53710938 237.04296875 C254.48753094 238.51745455 255.43681493 239.99267445 256.38476562 241.46875 C258.12632859 244.16856425 259.8520767 246.80776348 261.8125 249.35546875 C263 251 263 251 263 253 C250.19594342 253.20856131 237.39229103 253.3684607 224.58688164 253.46630955 C218.64064402 253.51327386 212.69556864 253.57696804 206.75 253.67895508 C201.01164468 253.77677128 195.2744068 253.83056333 189.53528214 253.85389519 C187.34626799 253.87052076 185.15731483 253.90298861 182.9687767 253.95157051 C179.90085702 254.01696242 176.83754781 254.02590113 173.76904297 254.02172852 C172.86489151 254.054086 171.96074005 254.08644348 171.02919006 254.11978149 C168.39993206 254.08111385 166.45844658 253.94315531 164 253 C161.40470211 250.28475107 159.72116928 247.31780291 158 244 C157.25244873 242.76004482 156.498509 241.52387568 155.73339844 240.29467773 C155.02292181 239.09243863 154.31496169 237.88870923 153.609375 236.68359375 C153.03026367 235.70243088 153.03026367 235.70243088 152.43945312 234.70144653 C151.62527887 233.32198038 150.81209856 231.94192715 149.99987793 230.56130981 C144.32239763 220.91405699 138.64381164 211.27425579 132.64550781 201.82202148 C128.14963091 194.71196897 123.86996271 187.47130498 119.55932617 180.24804688 C115.40404069 173.29827739 111.18135387 166.39912262 106.79296875 159.59375 C104 155.21167834 104 155.21167834 104 153 C101.20658769 154.89952037 98.62215411 156.87345439 96 159 C95.16987459 159.6533753 95.16987459 159.6533753 94.32297897 160.3199501 C87.72862056 165.64302029 81.54060485 170.81144856 80.44791031 179.60148239 C80.22090904 183.70244725 80.28541422 187.76413494 80.4140625 191.8671875 C80.41477454 193.44149748 80.40915985 195.01582305 80.3972168 196.59008789 C80.39693628 202.35222553 80.51793431 208.11385713 80.625 213.875 C80.74875 226.78625 80.8725 239.6975 81 253 C54.27 253 27.54 253 0 253 C0 169.51 0 86.02 0 0 Z " fill="#FDFEFE" transform="translate(2860,221)"/>
<path d="M0 0 C28.05 0 56.1 0 85 0 C90.62442533 13.4986208 90.62442533 13.4986208 92.38085938 18.48242188 C92.77948685 19.6080101 93.17811432 20.73359833 93.58882141 21.89329529 C94.00294785 23.07319534 94.41707428 24.2530954 94.84375 25.46875 C95.29376084 26.74275389 95.74410191 28.01664118 96.19474792 29.29042053 C97.14323726 31.97309675 98.08980779 34.65643822 99.03475952 37.34036255 C101.26533299 43.67517064 103.50656064 50.00621279 105.74677086 56.33761787 C106.48547651 58.42566578 107.22381171 60.51384441 107.96211243 62.60203552 C111.49904692 72.60276394 115.07026513 82.59052845 118.6875 92.5625 C119.68903682 95.3254358 120.69032829 98.08846041 121.69140625 100.8515625 C121.9460968 101.55443893 122.20078735 102.25731537 122.4631958 102.98149109 C126.37655643 113.79076352 130.24740879 124.6153594 134.125 135.4375 C134.93521862 137.69832455 135.74543998 139.95914811 136.55566406 142.2199707 C140.29502106 152.65512226 144.03270266 163.09087303 147.76905823 173.52709961 C149.42015933 178.13844078 151.07187227 182.74956268 152.72366333 187.36065674 C153.52888435 189.60904031 154.33379875 191.85753371 155.13839722 194.10614014 C159.00929381 204.92400528 162.8884877 215.73790242 166.859375 226.51953125 C167.29492455 227.70471848 167.29492455 227.70471848 167.73927307 228.91384888 C169.05156606 232.48380219 170.36963615 236.05134517 171.70092773 239.61425781 C172.14380127 240.8153418 172.5866748 242.01642578 173.04296875 243.25390625 C173.42477295 244.27814697 173.80657715 245.3023877 174.19995117 246.35766602 C175 249 175 249 175 253 C147.94 253 120.88 253 93 253 C88.75961538 240.27884615 88.75961538 240.27884615 86.8125 234.25 C86.53986328 233.42628906 86.26722656 232.60257813 85.98632812 231.75390625 C85.60057617 230.55314453 85.60057617 230.55314453 85.20703125 229.328125 C84.9747583 228.6155957 84.74248535 227.90306641 84.50317383 227.16894531 C84 225 84 225 84 220 C56.28 220 28.56 220 0 220 C-1.32 225.28 -2.64 230.56 -4 236 C-5.65 241.61 -7.3 247.22 -9 253 C-35.73 253 -62.46 253 -90 253 C-89.17477993 248.87389965 -88.1479684 245.30027363 -86.76171875 241.3515625 C-86.52926956 240.68776581 -86.29682037 240.02396912 -86.05732727 239.34005737 C-85.27124659 237.10032581 -84.47960094 234.86260901 -83.6875 232.625 C-83.41010986 231.83778564 -83.13271973 231.05057129 -82.84692383 230.23950195 C-76.91652704 213.41198022 -70.79892811 196.65258483 -64.68344116 179.8916626 C-59.53876131 165.78941329 -54.43496577 151.67704736 -49.5 137.5 C-43.72488594 120.90939547 -37.71126824 104.40814278 -31.68829346 87.90612793 C-25.84294678 71.88611604 -20.05947073 55.84868178 -14.484375 39.73242188 C-9.85469249 26.40555008 -4.90483431 13.24305263 0 0 Z " fill="#FDFEFE" transform="translate(2350,221)"/>
<path d="M0 0 C17.78424672 15.52722458 30.67879104 35.23083248 35.9921875 58.35546875 C36.15638184 59.06815918 36.32057617 59.78084961 36.48974609 60.51513672 C37.67505 66.26113965 37.5546875 70.86379101 37.5546875 76.98046875 C11.8146875 76.98046875 -13.9253125 76.98046875 -40.4453125 76.98046875 C-41.4353125 72.69046875 -42.4253125 68.40046875 -43.4453125 63.98046875 C-48.39641257 53.2295086 -55.19411137 45.20603297 -66.4453125 40.98046875 C-76.74595229 37.4380536 -89.99945308 37.05577235 -100.1953125 41.10546875 C-114.80448184 48.45109041 -123.04850078 59.43935416 -128.1328125 74.79296875 C-131.11901598 85.72717294 -131.80972368 96.88263016 -131.7578125 108.16796875 C-131.75362305 109.42665771 -131.74943359 110.68534668 -131.74511719 111.98217773 C-131.51710109 130.95238908 -129.53875935 150.26819574 -116.4453125 164.98046875 C-105.05531176 175.43196756 -92.94665319 176.64710417 -78.14453125 176.34765625 C-67.45572242 175.85424586 -59.33114671 172.09415388 -51.60546875 164.58203125 C-44.70075824 156.26641244 -41.76300703 146.52202499 -40.4453125 135.98046875 C-14.0453125 135.98046875 12.3546875 135.98046875 39.5546875 135.98046875 C37.02009628 168.93015462 24.19173945 193.68071015 -0.5078125 215.6015625 C-28.2614281 238.07756236 -65.31864707 243.67058755 -99.97875977 240.51855469 C-134.2601667 236.7072179 -166.52775058 222.25370585 -188.4453125 194.98046875 C-209.708291 167.26965262 -216.82021545 133.38026831 -215.4453125 98.98046875 C-215.42307617 98.28211914 -215.40083984 97.58376953 -215.37792969 96.86425781 C-214.26776937 64.50391299 -200.72813667 33.26883553 -178.4453125 9.98046875 C-177.83429688 9.30628906 -177.22328125 8.63210937 -176.59375 7.9375 C-159.97042692 -9.78225503 -135.96628322 -19.84729698 -112.4453125 -24.01953125 C-111.34445312 -24.22578125 -110.24359375 -24.43203125 -109.109375 -24.64453125 C-72.59609724 -30.55229754 -29.17880132 -24.09814742 0 0 Z " fill="#FEFEFE" transform="translate(1805.4453125,240.01953125)"/>
<path d="M0 0 C31.02 0 62.04 0 94 0 C94 79.53 94 159.06 94 241 C14.47 241 -65.06 241 -147 241 C-147 209.98 -147 178.96 -147 147 C-98.49 147 -49.98 147 0 147 C0 98.49 0 49.98 0 0 Z " fill="#DB3A31" transform="translate(529,374)"/>
<path d="M0 0 C30.69 0 61.38 0 93 0 C93 48.51 93 97.02 93 147 C141.51 147 190.02 147 240 147 C240 178.02 240 209.04 240 241 C160.8 241 81.6 241 0 241 C0 161.47 0 81.94 0 0 Z " fill="#DB3A31" transform="translate(88,374)"/>
<path d="M0 0 C79.53 0 159.06 0 241 0 C241 79.2 241 158.4 241 240 C209.98 240 178.96 240 147 240 C147 191.49 147 142.98 147 93 C98.49 93 49.98 93 0 93 C0 62.31 0 31.62 0 0 Z " fill="#DB3A31" transform="translate(382,80)"/>
<path d="M0 0 C79.2 0 158.4 0 240 0 C240 30.69 240 61.38 240 93 C191.49 93 142.98 93 93 93 C93 141.51 93 190.02 93 240 C62.31 240 31.62 240 0 240 C0 160.8 0 81.6 0 0 Z " fill="#DB3A31" transform="translate(88,80)"/>
<path d="M0 0 C65.01 0 130.02 0 197 0 C197 20.46 197 40.92 197 62 C159.38 62 121.76 62 83 62 C83 75.53 83 89.06 83 103 C113.03 103 143.06 103 174 103 C174 122.8 174 142.6 174 163 C143.97 163 113.94 163 83 163 C83 192.7 83 222.4 83 253 C55.61 253 28.22 253 0 253 C0 169.51 0 86.02 0 0 Z " fill="#FDFDFE" transform="translate(1368,221)"/>
<path d="M0 0 C53.13 0 106.26 0 161 0 C161 53.13 161 106.26 161 161 C107.87 161 54.74 161 0 161 C0 107.87 0 54.74 0 0 Z " fill="#1D4989" transform="translate(275,267)"/>
<path d="M0 0 C5.94 0 11.88 0 18 0 C45.16015715 106.97141986 45.16015715 106.97141986 49.87255859 127.77416992 C52.7048811 140.23414592 55.8582239 152.61506816 59 165 C60.88803065 161.36430538 62.11195296 157.67450719 63.25 153.75 C63.46398437 153.01837646 63.67796875 152.28675293 63.8984375 151.53295898 C66.04943687 144.04850103 67.90811048 136.49438858 69.77075195 128.93408203 C71.42118445 122.25328309 73.17154611 115.6133353 75.03955078 108.99047852 C76.86739782 102.50672684 78.62776539 96.00591616 80.375 89.5 C80.67140381 88.39672363 80.96780762 87.29344727 81.27319336 86.15673828 C81.87991291 83.89751272 82.48643809 81.63823495 83.09277344 79.37890625 C84.84866895 72.83918777 86.61044188 66.30104984 88.37231445 59.76293945 C89.84816968 54.28466711 91.32024662 48.80542896 92.78515625 43.32421875 C101.84849755 9.45450735 101.84849755 9.45450735 105 0 C111.6 0 118.2 0 125 0 C126.94381816 5.18351509 128.55459463 9.7513586 129.83203125 15.04296875 C129.98894943 15.68450394 130.14586761 16.32603912 130.30754089 16.98701477 C130.64075776 18.34944288 130.97204789 19.71234352 131.30151367 21.07568359 C133.68719075 30.93526638 136.12273769 40.77040228 139 50.5 C142.01142393 60.713425 144.5661645 71.03550902 147.109375 81.37304688 C149.30222751 90.27906011 151.61604154 99.14364571 154 108 C154.81720268 111.08210261 155.6278218 114.16591326 156.4375 117.25 C156.86327429 118.8697935 157.28905575 120.48958511 157.71484375 122.109375 C157.92737793 122.91826172 158.13991211 123.72714844 158.35888672 124.56054688 C159.40489481 128.54063556 160.45251555 132.52029966 161.5 136.5 C161.91016428 138.05859164 162.32032049 139.6171854 162.73046875 141.17578125 C162.93591309 141.95646973 163.14135742 142.7371582 163.35302734 143.54150391 C165.23535156 150.69433594 167.11767578 157.84716797 169 165 C170.58901046 162.06693488 171.54612267 159.2939523 172.34106445 156.05810547 C172.70703484 154.58408768 172.70703484 154.58408768 173.08039856 153.08029175 C173.33874985 152.01996735 173.59710114 150.95964294 173.86328125 149.8671875 C174.13714157 148.76134308 174.41100189 147.65549866 174.69316101 146.5161438 C175.57074807 142.97018296 176.44207165 139.42272429 177.3125 135.875 C178.172939 132.3774501 179.03483774 128.88027747 179.89970398 125.38381958 C180.43679719 123.21154207 180.97138441 121.03864248 181.50276184 118.86495972 C183.02089289 112.71419286 184.65733489 106.60751917 186.37475586 100.51025391 C188.96738451 91.27849526 191.29261943 81.98884663 193.57239532 72.67555237 C194.28463306 69.76610319 195.0002948 66.85751349 195.71673584 63.94909668 C197.2307978 57.80012691 198.74062051 51.65012056 200.25 45.5 C202.01481401 38.31041367 203.78138512 31.12126625 205.55181122 23.93305969 C206.25675578 21.06730531 206.95879739 18.20084994 207.66070557 15.33435059 C208.08909684 13.59330949 208.51761741 11.85230021 208.94628906 10.11132812 C209.23768768 8.91620857 209.23768768 8.91620857 209.53497314 7.69694519 C210.886176 2.22764801 210.886176 2.22764801 212 0 C218.27 0 224.54 0 231 0 C225.75072534 23.62173598 225.75072534 23.62173598 223.1875 32.3125 C221.08664669 39.47034802 219.29575078 46.6977292 217.5 53.9375 C215.40706496 62.3751248 213.29357983 70.79964081 211.0234375 79.19140625 C209.6764509 84.20404722 208.36978073 89.2268803 207.0625 94.25 C204.19278843 105.2694407 201.29826296 116.28219479 198.39550781 127.29296875 C195.66176235 137.66447327 192.94348604 148.0398836 190.23950195 158.41918945 C188.3887883 165.51987452 186.5254835 172.61716625 184.6484375 179.7109375 C184.46023438 180.42378906 184.27203125 181.13664063 184.078125 181.87109375 C183.91731445 182.47880615 183.75650391 183.08651855 183.59082031 183.71264648 C182.7064517 187.13646861 181.85765295 190.56938821 181 194 C174.07 194 167.14 194 160 194 C155.69747027 179.43759168 151.88202016 164.79748585 148.24829102 150.05761719 C146.21533768 141.81691866 144.12092277 133.60040144 141.91552734 125.40380859 C140.62593695 120.60928345 139.37453371 115.8050889 138.125 111 C137.60678218 109.01041371 137.08855267 107.02083047 136.5703125 105.03125 C136.18020996 103.53271484 136.18020996 103.53271484 135.78222656 102.00390625 C134.52315866 97.168834 133.26148225 92.33444278 132 87.5 C131.49998674 85.58333679 130.99998676 83.66667012 130.5 81.75 C130.12875 80.326875 130.12875 80.326875 129.75 78.875 C129 76 128.25 73.125 127.5 70.25 C127.25209717 69.3000415 127.00419434 68.35008301 126.7487793 67.37133789 C126.25218484 65.46705115 125.75624683 63.56259309 125.26098633 61.65795898 C123.9643918 56.67522776 122.65433097 51.69655363 121.32421875 46.72265625 C121.05029297 45.69140625 120.77636719 44.66015625 120.49414062 43.59765625 C119.97234342 41.63428372 119.44656693 39.67196257 118.91601562 37.7109375 C117.52759089 32.46745881 116.53678057 27.39938108 116 22 C115.34 22 114.68 22 114 22 C113.82210937 23.70542969 113.82210937 23.70542969 113.640625 25.4453125 C113.06315625 30.04285214 111.97207238 34.41179944 110.75 38.875 C110.52675049 39.70813721 110.30350098 40.54127441 110.07348633 41.3996582 C109.02071628 45.31137426 107.94402553 49.2157768 106.83984375 53.11328125 C103.63775013 64.42388022 100.75904519 75.80597879 97.94213867 87.2175293 C96.01564275 95.01143286 94.01430114 102.77871831 91.9309082 110.5324707 C90.63792402 115.34869268 89.38015352 120.17380907 88.125 125 C87.87306885 125.96639404 87.6211377 126.93278809 87.36157227 127.9284668 C86.05611452 132.9369718 84.754426 137.94643167 83.45703125 142.95703125 C80.97431728 152.53105661 78.44417772 162.08529771 75.76464844 171.60620117 C73.6860783 179.03343236 71.83848979 186.50985643 70 194 C63.07 194 56.14 194 49 194 C46.79865291 186.5311438 44.73715905 179.08982306 43 171.5 C41.82448989 166.36795073 40.55306931 161.30237147 39.0625 156.25 C37.10492145 149.57887937 35.48796749 142.84719441 33.92602539 136.07324219 C32.12849211 128.33442807 30.07198981 120.66875084 28 113 C19.83794625 82.69144167 19.83794625 82.69144167 17.29467773 71.49560547 C16.34933231 67.36845542 15.25735608 63.31156611 14.0625 59.25 C12.081064 52.49757694 10.46401729 45.68007864 8.86010742 38.8293457 C7.32870462 32.3112941 5.66141157 25.84658344 3.9140625 19.3828125 C3.00819854 16.0303416 2.1170173 12.67523065 1.25 9.3125 C1.00765625 8.38050781 0.7653125 7.44851563 0.515625 6.48828125 C0 4 0 4 0 0 Z " fill="#252223" transform="translate(88,745)"/>
<path d="M0 0 C8.6841395 7.04119419 12.77864419 16.35629744 14.625 27.1875 C14.88313739 30.33119627 14.90601889 33.45380752 14.89624023 36.60693359 C14.90146698 37.50075745 14.90669373 38.3945813 14.91207886 39.31549072 C14.92225164 41.23877602 14.92808741 43.16208834 14.92996025 45.08539963 C14.93364507 48.1283209 14.95042503 51.17092245 14.97071838 54.21377563 C15.02595912 62.85876546 15.05692468 71.50379945 15.08129883 80.14892578 C15.09714168 85.4502586 15.12731156 90.75135812 15.16606331 96.05257034 C15.17772714 98.07081256 15.18364378 100.08909637 15.18374443 102.10737228 C15.18393575 104.91997592 15.20214354 107.73193044 15.22436523 110.54443359 C15.21978806 111.37977631 15.21521088 112.21511902 15.210495 113.07577515 C15.15457023 117.26663812 15.15457023 117.26663812 16.94204807 120.90892982 C19.69511589 123.00048714 22.27303079 122.41475215 25.625 122.1875 C27.605 121.8575 29.585 121.5275 31.625 121.1875 C31.625 125.4775 31.625 129.7675 31.625 134.1875 C24.00964487 136.5306862 15.28597356 137.8996373 7.625 135 C1.93335517 131.56129791 0.47868601 128.18580142 -1.125 121.875 C-1.55429618 119.98198655 -1.97511699 118.08694432 -2.375 116.1875 C-2.95765625 116.75597656 -3.5403125 117.32445312 -4.140625 117.91015625 C-19.54711917 132.42036067 -37.07620534 138.76309366 -58.12890625 138.37109375 C-62.44488369 138.12698913 -66.2688473 137.53030381 -70.375 136.1875 C-71.79232422 135.72730469 -71.79232422 135.72730469 -73.23828125 135.2578125 C-85.25493716 130.82981985 -93.18070708 122.99551514 -98.625 111.5625 C-102.03760759 100.75590929 -101.45128959 89.29263721 -96.375 79.1875 C-90.03554336 68.26205346 -79.25469723 61.81858948 -67.375 58.1875 C-55.77458043 55.20311938 -43.95831435 53.83747708 -32.09301758 52.38525391 C-16.91555827 51.3640908 -16.91555827 51.3640908 -4.375 44.1875 C-1.8298721 37.59125135 -2.16571152 27.72611905 -4.43359375 21.08984375 C-8.7780039 13.28403365 -14.48172798 9.85431341 -22.875 7.375 C-35.59373184 4.56821807 -50.43016202 4.97818504 -62.25 10.875 C-71.6029614 17.79619143 -75.12938938 25.95944688 -77.375 37.1875 C-82.985 37.1875 -88.595 37.1875 -94.375 37.1875 C-92.77701587 24.40362698 -89.50392331 12.90308517 -79.375 4.1875 C-78.72789063 3.62289062 -78.08078125 3.05828125 -77.4140625 2.4765625 C-57.36627445 -14.19475598 -21.18854961 -14.78364583 0 0 Z " fill="#272425" transform="translate(1595.375,804.8125)"/>
<path d="M0 0 C15.1000573 11.62195421 22.52438948 29.1626292 25 47.75 C25.12955078 48.63558594 25.25910156 49.52117188 25.39257812 50.43359375 C26.19271072 56.19962864 26.3125 61.29389665 26.3125 67.25 C-9.6575 67.25 -45.6275 67.25 -82.6875 67.25 C-78.91551618 93.43897631 -78.91551618 93.43897631 -63.08203125 113.3125 C-51.21995232 121.34324455 -38.80596953 123.07938622 -24.86328125 120.55859375 C-14.3770003 117.84916548 -5.91042322 113.28941446 0.3125 104.25 C2.99148704 99.69660619 4.62962712 95.29861864 6.3125 90.25 C12.2525 90.25 18.1925 90.25 24.3125 90.25 C21.90207438 104.71255372 13.06912936 118.52987665 1.1875 127.0625 C-14.42379394 137.68213094 -33.20408576 139.2995906 -51.4375 136.1875 C-66.21314311 132.78989223 -78.66436902 124.78902087 -87.38671875 112.33203125 C-99.6476938 92.70710722 -103.16008252 67.71639813 -98.50708008 45.11645508 C-94.2379437 27.29789791 -85.53386543 9.33965688 -69.77294922 -1.00683594 C-47.96144646 -13.82583022 -21.27824965 -14.77334996 0 0 Z " fill="#252223" transform="translate(1134.6875,805.75)"/>
<path d="M0 0 C15.62085179 11.96865264 22.66196898 30.38378286 25.375 49.375 C25.375 55.315 25.375 61.255 25.375 67.375 C-10.265 67.375 -45.905 67.375 -82.625 67.375 C-80.23222928 84.12439503 -77.54652673 102.3538131 -63.15234375 113.24609375 C-51.5539266 121.09256161 -40.3845525 122.73804878 -26.625 121.375 C-15.68097817 119.22028158 -6.00110293 113.63692322 0.375 104.375 C3.05398704 99.82160619 4.69212712 95.42361864 6.375 90.375 C12.315 90.375 18.255 90.375 24.375 90.375 C20.15165519 106.32985816 12.22712567 120.41253001 -2.26171875 129.13671875 C-19.12401216 137.97200306 -38.192282 140.13631351 -56.67333984 134.99560547 C-71.18154559 130.38216301 -82.93437672 121.81265261 -90.14404297 108.28222656 C-91.7639114 105.03036152 -93.23491038 101.73087292 -94.625 98.375 C-95.16060547 97.08916016 -95.16060547 97.08916016 -95.70703125 95.77734375 C-103.49968549 74.62585367 -102.11503576 47.60522051 -92.79296875 27.23046875 C-84.04643721 9.35378586 -71.48331126 -2.16017232 -52.62109375 -8.66015625 C-34.98785921 -13.70828598 -15.10942285 -10.30093711 0 0 Z " fill="#252223" transform="translate(432.625,805.625)"/>
<path d="M0 0 C53.20399113 0 53.20399113 0 65 10 C67.68707011 12.80684261 69.89757242 15.73644619 72 19 C72.38800781 19.59167969 72.77601562 20.18335938 73.17578125 20.79296875 C84.30061516 40.25068984 83.17233629 69.02556544 78 90 C74.82621145 101.15634763 69.16729452 112.09779825 59.30078125 118.7265625 C40.626183 129.06258801 21.13032668 127 0 127 C0 85.09 0 43.18 0 0 Z " fill="#1E4989" transform="translate(1168,284)"/>
<path d="M0 0 C11.92447886 8.64092671 17.97800904 21.20256763 20.65234375 35.45703125 C23.17942788 55.22367557 22.22914873 78.08894549 9.90625 94.61328125 C3.16564481 102.89426965 -5.54456916 108.93691775 -16.1875 110.96875 C-31.58520318 112.45449329 -43.25537194 111.04641024 -55.75 101.3125 C-56.35457031 100.85746094 -56.95914063 100.40242187 -57.58203125 99.93359375 C-67.99568703 90.93036539 -72.7056385 75.58788513 -73.75 62.3125 C-74.31125187 52.27298414 -74.59797522 42.0376881 -71.75 32.3125 C-71.481875 31.27996094 -71.21375 30.24742187 -70.9375 29.18359375 C-67.17084647 15.63933544 -60.61361138 4.98463714 -48.1875 -2.0625 C-33.20116434 -10.03442893 -14.33584931 -8.72299984 0 0 Z " fill="#FDFDFD" transform="translate(2270.75,816.6875)"/>
<path d="M0 0 C11.37634251 8.25503554 17.51378176 20.63134883 20.1875 34.25 C22.48529351 49.5901989 22.01442011 64.48530318 17.1875 79.25 C16.88714844 80.20390625 16.58679687 81.1578125 16.27734375 82.140625 C12.21342174 93.61108885 3.54645066 102.89585126 -7.375 108.125 C-17.39953641 112.62338038 -31.27087196 113.18701672 -41.75 109.625 C-46.87477357 107.43525417 -51.42101967 104.67117229 -55.8125 101.25 C-56.41707031 100.79496094 -57.02164063 100.33992187 -57.64453125 99.87109375 C-67.32385433 91.50273994 -72.58847227 76.58722999 -73.8125 64.25 C-74.94177278 43.22571457 -72.76031425 23.1919653 -59.19140625 6.22265625 C-44.24845307 -10.15367373 -18.17624518 -11.14322569 0 0 Z " fill="#FDFDFD" transform="translate(2942.8125,816.75)"/>
<path d="M0 0 C13.09323214 9.06164699 20.84320349 22.66327577 23.87109375 38.18359375 C26.28804311 58.73835774 24.08239433 79.35278349 11.50390625 96.38671875 C4.79537654 104.55303761 -4.15833193 110.29146727 -14.6875 111.9375 C-29.32837974 113.25453672 -41.34195828 111.39195484 -53.21484375 102.1328125 C-63.30139996 93.17760777 -69.28935133 80.31802803 -70.6875 66.9375 C-71.90715753 46.0000457 -70.91922621 24.62198865 -56.6875 7.9375 C-41.64958616 -7.69651132 -19.03360798 -11.19313424 0 0 Z " fill="#FDFDFD" transform="translate(958.6875,816.0625)"/>
<path d="M0 0 C12.73136317 8.8224511 20.92774159 23.0942032 23.85546875 38.26171875 C26.13267905 59.11735767 23.80347115 80.47866202 10.50390625 97.4375 C1.76822866 106.88474925 -8.59855577 111.82538167 -21.40014648 112.34350586 C-35.39217375 112.53103537 -46.43306566 108.68836995 -56.75 98.99609375 C-70.96535915 83.83100156 -71.35826393 64.45740802 -70.890625 44.88671875 C-70.15622532 29.1583256 -64.29769955 14.46939757 -52.80078125 3.5078125 C-37.64268728 -8.56091755 -16.65712283 -9.86156585 0 0 Z " fill="#FDFDFD" transform="translate(1890.75,816.125)"/>
<path d="M0 0 C11.80019323 9.23891098 17.96698307 22.70851411 20.578125 37.2109375 C22.97194019 58.7109443 20.72225751 78.71354257 7.265625 96.26171875 C1.46511687 102.76869902 -8.32537897 108.64916783 -17 110 C-32.25630875 110.83245336 -45.13440624 109.35979261 -57.2265625 99.11328125 C-66.8121266 89.97647951 -73.21369283 77.38942283 -73.94140625 64.00390625 C-73.96074219 63.01261719 -73.98007813 62.02132812 -74 61 C-74.02433105 60.29601074 -74.04866211 59.59202148 -74.07373047 58.86669922 C-74.72297752 39.03038708 -72.18066213 20.65831567 -59.125 4.875 C-43.03671274 -11.49444179 -18.73679592 -11.63232323 0 0 Z " fill="#FDFDFD" transform="translate(3255,818)"/>
<path d="M0 0 C5.28 0 10.56 0 16 0 C26.07197685 32.05431079 26.07197685 32.05431079 28.625 40.875 C31.00329979 49.08941135 33.53279452 57.25508858 36.05908203 65.42504883 C37.92104134 71.45774426 39.7480825 77.49700593 41.5 83.5625 C44.74715971 94.78554035 48.40480928 105.88479051 52 117 C52.30292969 115.76507812 52.60585937 114.53015625 52.91796875 113.2578125 C55.15199762 104.20449614 57.45883846 95.18273873 59.98535156 86.20654297 C61.85193622 79.56740812 63.65003071 72.91083878 65.4375 66.25 C68.11023099 56.2971282 70.80379851 46.35030934 73.5234375 36.41015625 C74.55763852 32.62846938 75.58225685 28.84432206 76.6015625 25.05859375 C76.86702881 24.07600586 77.13249512 23.09341797 77.40600586 22.08105469 C77.90891443 20.21898897 78.40988523 18.35639826 78.90844727 16.49316406 C80.41657855 10.92126607 82.12818071 5.46085332 84 0 C89.94 0 95.88 0 102 0 C103.56080623 4.68241869 104.99277431 9.35691433 106.30859375 14.109375 C106.5249498 14.8898822 106.74130585 15.6703894 106.96421814 16.47454834 C109.49567865 25.69151736 111.77928112 34.96908097 114.0625 44.25 C116.54776135 54.35083258 119.07339504 64.4109789 121.98413086 74.39941406 C123.84780682 81.00491587 125.49078074 87.66711377 127.14697266 94.32714844 C127.75978537 96.78931581 128.3777411 99.25015625 128.99609375 101.7109375 C129.38832337 103.28117446 129.78026182 104.85148419 130.171875 106.421875 C130.3561908 107.15508972 130.54050659 107.88830444 130.73040771 108.64373779 C132 113.7699555 132 113.7699555 132 116 C132.66 116 133.32 116 134 116 C134.09925781 115.04351563 134.19851562 114.08703125 134.30078125 113.1015625 C134.98727453 108.32126901 136.58978295 103.91624328 138.1875 99.375 C140.64320649 92.38786284 142.78636869 85.34439804 144.796875 78.21875 C147.74874849 67.76291385 150.9169143 57.382663 154.15942383 47.01367188 C155.06831213 44.10640872 155.97289611 41.19783122 156.87695312 38.2890625 C159.80531014 28.88737471 162.78186675 19.50925028 165.95483398 10.18701172 C167.05924557 6.81934323 168.02635034 3.40777381 169 0 C174.61 0 180.22 0 186 0 C183.96146333 7.73500829 181.64010147 15.30421627 179.0625 22.875 C177.02508426 28.8812545 175.01706464 34.88788335 173.17553711 40.95751953 C171.13603858 47.60929105 168.98952876 54.22254471 166.81022644 60.8296814 C166.13550453 62.87539905 165.46240951 64.92164627 164.78967285 66.96801758 C163.12029593 72.04496785 161.44826872 77.12104434 159.77630615 82.19714355 C158.35626055 86.50877217 156.93726347 90.82074328 155.51957703 95.13314819 C154.86485013 97.12336068 154.20865196 99.11308368 153.55236816 101.1027832 C151.24342815 108.12439107 149.00088743 115.16098912 146.84967041 122.23258972 C145.01918086 128.1945669 142.98868987 134.08917176 141 140 C135.06 140 129.12 140 123 140 C122.31164063 137.22916016 122.31164063 137.22916016 121.609375 134.40234375 C117.42738617 117.56855865 117.42738617 117.56855865 113.01953125 100.79296875 C111.69587338 95.86855575 110.4100498 90.93460757 109.125 86 C108.74311523 84.53421509 108.74311523 84.53421509 108.35351562 83.03881836 C107.83108913 81.03307378 107.30879237 79.02729541 106.78662109 77.02148438 C105.50466525 72.09737343 104.22134565 67.17361853 102.9375 62.25 C102.6904834 61.3024585 102.4434668 60.35491699 102.18896484 59.37866211 C100.35416609 52.34526689 98.50751507 45.31503971 96.64819336 38.28808594 C95.39318441 33.53463877 94.18352777 28.77176878 93 24 C89.78335441 34.95028287 86.71743029 45.9142526 84 57 C82.16931849 64.46560852 80.22413784 71.87340195 78.0625 79.25 C75.28732529 88.72459846 72.90486913 98.28017333 70.54858398 107.86645508 C68.7137495 115.28329232 66.75383971 122.63682528 64.50952148 129.94042969 C63.47641967 133.30393381 62.69380758 136.53096209 62 140 C55.4 140 48.8 140 42 140 C39.37341094 133.23148204 37.20954774 126.42088993 35.25 119.4375 C32.02906306 107.96258817 28.5171488 96.58528155 24.98925781 85.20166016 C23.45715309 80.24311591 21.94612463 75.27822974 20.4375 70.3125 C20.15269775 69.3755127 19.86789551 68.43852539 19.57446289 67.47314453 C19.00248285 65.59101994 18.43062366 63.70885861 17.85888672 61.82666016 C16.4076638 57.05057744 14.9536638 52.27534025 13.5 47.5 C12.92186856 45.60026238 12.34374357 43.70052279 11.765625 41.80078125 C10.54742017 37.79801089 9.32857821 33.79543513 8.109375 29.79296875 C7.79806641 28.77074219 7.48675781 27.74851562 7.16601562 26.6953125 C6.57633978 24.75906344 5.98650842 22.82286173 5.39648438 20.88671875 C4.85991391 19.12461622 4.32470903 17.36209714 3.79101562 15.59912109 C3.2444143 13.8030971 2.69055992 12.00927023 2.13085938 10.21728516 C1.85564453 9.32702637 1.58042969 8.43676758 1.296875 7.51953125 C1.04776367 6.72264893 0.79865234 5.9257666 0.54199219 5.10473633 C0 3 0 3 0 0 Z " fill="#262324" transform="translate(2649,799)"/>
<path d="M0 0 C5.28 0 10.56 0 16 0 C16 64.02 16 128.04 16 194 C10.72 194 5.44 194 0 194 C-0.33 186.08 -0.66 178.16 -1 170 C-1.969375 171.485 -2.93875 172.97 -3.9375 174.5 C-12.68537682 186.88699358 -24.45357589 193.33704175 -39 197 C-39.64582031 197.18433594 -40.29164062 197.36867188 -40.95703125 197.55859375 C-55.92272302 200.79209886 -73.45339856 196.03027107 -86.21777344 188.1875 C-100.14195159 178.90980102 -107.40630013 162.91785706 -111 147 C-115.36022348 120.54602668 -112.31374638 93.3959658 -97 71 C-87.88609065 59.48482112 -74.81841093 53.24533057 -60.6875 50.3125 C-40.97661459 48.64208598 -24.5157992 53.27654634 -8.91015625 65.3046875 C-6 68 -6 68 -1 75 C-0.67 50.25 -0.34 25.5 0 0 Z M-82.375 79.97265625 C-92.85720604 93.05021618 -95.17789842 109.09542396 -95.1875 125.3125 C-95.19974609 126.38951172 -95.21199219 127.46652344 -95.22460938 128.57617188 C-95.25291818 144.155452 -91.06576399 159.30766053 -80.19140625 170.93359375 C-69.65693485 180.78978932 -57.53072114 183.63542723 -43.515625 183.3046875 C-31.8967362 182.71841329 -22.1272756 177.46479501 -14.15625 169.0546875 C-10.28193382 164.17225843 -7.54927364 158.6630293 -5 153 C-4.7009375 152.34257813 -4.401875 151.68515625 -4.09375 151.0078125 C2.89563927 134.16338437 1.98841689 112.83218604 -4.74755859 96.1484375 C-10.1218464 83.53255256 -17.57138263 74.16419329 -30 68 C-49.0026836 60.66517295 -68.51492581 65.31049443 -82.375 79.97265625 Z " fill="#262324" transform="translate(1915,745)"/>
<path d="M0 0 C5.28 0 10.56 0 16 0 C16 64.02 16 128.04 16 194 C10.72 194 5.44 194 0 194 C-0.33 186.08 -0.66 178.16 -1 170 C-2.98 172.97 -4.96 175.94 -7 179 C-16.82211686 190.2012497 -31.08580371 196.82675737 -45.81640625 198.27734375 C-62.56691031 198.84708879 -78.52505189 194.67474877 -91.4375 183.6875 C-106.6766406 168.82247906 -111.90780252 148.61665455 -112.40209961 127.82519531 C-112.51837021 115.67211151 -111.86651425 104.54866755 -108 93 C-107.649375 91.93265625 -107.29875 90.8653125 -106.9375 89.765625 C-101.26976977 74.57295925 -91.12556769 62.43807278 -76.50732422 55.30688477 C-60.54486512 48.05490462 -44.25153803 48.58839087 -27.90234375 54.03125 C-16.44003634 58.40911193 -9.07013747 64.77698575 -1 74 C-0.67 49.58 -0.34 25.16 0 0 Z M-83.1484375 81.44921875 C-95.40609752 98.33582633 -97.18311828 120.24042157 -94.69970703 140.44287109 C-92.2470102 154.68101051 -85.65859341 167.67548112 -73.8125 176.25 C-62.00340935 183.50189124 -49.00457869 184.90402455 -35.53125 182.33984375 C-24.03462743 178.9175244 -14.33851153 171.58978161 -8.37890625 161.1640625 C0.97346914 142.27273067 3.25483819 120.92761919 -2.6796875 100.61328125 C-7.42272574 87.63307305 -14.95745553 75.91454723 -27.3515625 69.18359375 C-47.51720371 60.17151516 -68.95622505 64.62777173 -83.1484375 81.44921875 Z " fill="#242122" transform="translate(983,745)"/>
<path d="M0 0 C5.28 0 10.56 0 16 0 C16 64.02 16 128.04 16 194 C10.72 194 5.44 194 0 194 C-0.33 186.41 -0.66 178.82 -1 171 C-2.98 173.64 -4.96 176.28 -7 179 C-17.57031437 190.78996603 -32.02362636 197.05228732 -47.78125 198.203125 C-63.97435314 198.48231643 -78.91633937 194.30409008 -91.4375 183.75 C-106.47688194 169.17905782 -111.93023526 147.77505071 -112.29296875 127.41015625 C-112.42577424 105.49725076 -108.52824477 84.4038695 -93.546875 67.43359375 C-81.67629912 56.0910036 -67.68151757 50.19410175 -51.25 49.6875 C-33.8869515 50.11262619 -18.50344921 55.87793845 -5.91796875 67.921875 C-4 70 -4 70 -1 74 C-0.67 49.58 -0.34 25.16 0 0 Z M-80.6875 78.4375 C-93.28238482 94.15834418 -95.71164452 112.36437399 -95.06933594 131.87548828 C-95.01433023 133.56090967 -94.99003466 135.24732883 -94.9765625 136.93359375 C-94.34767225 151.27712913 -86.73293409 163.75368996 -76.5625 173.3125 C-65.88266886 182.40210247 -53.8204381 184.09328373 -40.10400391 183.24267578 C-28.57820273 181.91329003 -18.89413649 175.02562233 -11.66015625 166.30859375 C0.40187337 149.53527726 1.88154197 129.59979231 -0.4375 109.68359375 C-2.85770942 95.17746354 -9.70085493 82.34882102 -21.328125 73.16015625 C-39.74146475 60.35223795 -64.7869094 62.21387257 -80.6875 78.4375 Z " fill="#252223" transform="translate(3276,745)"/>
<path d="M0 0 C13.6995833 12.10964756 20.94223639 30.22537553 22.45703125 48.171875 C22.61898535 52.25612151 22.6420721 56.33476086 22.64453125 60.421875 C22.65677734 61.47761719 22.66902344 62.53335938 22.68164062 63.62109375 C22.71954767 84.26779899 16.00462583 103.25897893 1.45703125 118.171875 C-13.38328756 130.44696585 -30.28806977 135.79334018 -49.54296875 134.171875 C-66.64089683 131.55047276 -82.07023099 123.9932584 -92.6328125 110.0078125 C-106.87508717 88.86284029 -109.77232502 63.57600015 -105.35546875 38.734375 C-101.05503041 21.17090253 -91.66864091 4.8084963 -76.34375 -5.296875 C-52.18492685 -18.50504609 -21.84689577 -17.01690857 0 0 Z M-62.54296875 5.171875 C-63.31640625 5.584375 -64.08984375 5.996875 -64.88671875 6.421875 C-77.68637906 14.13673875 -83.78590808 25.71674918 -87.96484375 39.58984375 C-92.51774046 59.92406486 -90.41449574 82.51078827 -79.64453125 100.46386719 C-73.53636214 109.93477834 -64.06196878 115.20053023 -53.60546875 118.84765625 C-39.58637716 121.05141497 -26.59567117 118.57121482 -14.54296875 111.171875 C-3.24014578 102.34923597 2.91147971 88.42450871 5.14453125 74.5078125 C6.97642653 54.95233041 6.06468048 33.68658015 -5.83203125 17.23046875 C-12.98373321 8.62556708 -21.58610526 3.57148694 -32.54296875 1.171875 C-42.87238987 0.26840892 -53.22234154 0.20087382 -62.54296875 5.171875 Z " fill="#252223" transform="translate(2286.54296875,808.828125)"/>
<path d="M0 0 C8.86227649 8.23988761 15.49448018 19.00311321 18.37109375 30.81640625 C18.64695312 31.79609375 18.9228125 32.77578125 19.20703125 33.78515625 C24.83934084 56.72777515 22.88061157 83.25414358 10.6015625 103.7734375 C8.93177759 106.19990054 7.2181369 108.52256217 5.37109375 110.81640625 C4.60023438 111.80382812 3.829375 112.79125 3.03515625 113.80859375 C-6.56025344 125.22584804 -22.12401749 131.48951793 -36.62890625 132.81640625 C-54.15361077 134.162867 -70.27789973 129.37028376 -84.31640625 118.75390625 C-93.64865492 110.72790306 -99.7371517 100.4201303 -103.62890625 88.81640625 C-104.02078125 87.71941406 -104.41265625 86.62242187 -104.81640625 85.4921875 C-111.60417068 63.31410998 -109.43403272 37.80824628 -98.76147461 17.28808594 C-90.49235108 2.18282421 -78.84044674 -7.77268885 -62.31640625 -12.99609375 C-40.62533521 -18.82149987 -17.3002231 -14.36972468 0 0 Z M-76.81640625 13.94140625 C-90.42049002 30.06576849 -91.92283667 50.63398313 -90.62890625 70.81640625 C-88.99917759 84.30227093 -83.40300663 98.52531797 -73.30078125 107.84375 C-61.01134946 116.9170878 -48.93192526 118.93153873 -34 117.578125 C-22.36359018 115.45656962 -13.00516077 108.91663787 -5.984375 99.64453125 C5.25291813 82.6890206 6.80336325 59.81365809 3.18359375 40.25390625 C0.12036438 26.20579387 -5.50649441 14.96700043 -17.22265625 6.3203125 C-36.38761027 -5.65778376 -61.36424205 -2.24239452 -76.81640625 13.94140625 Z " fill="#252223" transform="translate(2959.62890625,810.18359375)"/>
<path d="M0 0 C8.90819984 8.90819984 14.8125 20.05891816 14.8125 32.8125 C9.5325 32.8125 4.2525 32.8125 -1.1875 32.8125 C-1.538125 31.36875 -1.88875 29.925 -2.25 28.4375 C-4.70367416 20.35413418 -9.25609731 12.88249627 -16.84765625 8.7734375 C-28.68732971 3.91106743 -42.92183152 2.57455961 -55.10546875 6.8984375 C-61.33547881 9.63356387 -65.50653334 13.28247001 -68.4375 19.4375 C-69.80792492 25.60441214 -70.47632624 32.13305018 -67.6875 38 C-59.95985977 48.38136284 -44.48277551 50.97318073 -32.70581055 53.59423828 C-15.05909492 57.54541418 3.8504781 62.32927552 14.8125 77.8125 C19.65810849 85.65581543 20.0591645 94.86081878 18.8125 103.8125 C16.19793499 113.92369389 10.84079112 121.46999124 2.0625 127.0625 C-14.40986819 136.20280656 -35.03536865 139.75620336 -53.5625 135.6875 C-66.90426139 131.73301671 -77.33688549 125.03321229 -84.578125 113.05859375 C-88.31320533 105.52497298 -91.1875 97.2433394 -91.1875 88.8125 C-85.5775 88.8125 -79.9675 88.8125 -74.1875 88.8125 C-73.48625 91.1225 -72.785 93.4325 -72.0625 95.8125 C-68.67662208 106.21709055 -63.9328181 112.48247945 -54.1875 117.8125 C-43.33715897 122.36964323 -26.43037055 122.96907 -15.29296875 118.84765625 C-8.3161054 115.41747297 -3.52199912 110.88221059 -0.1875 103.8125 C1.56915741 98.11462403 1.71385761 92.16384007 -0.625 86.625 C-6.35906331 76.77567356 -18.52055628 74.25917867 -28.78466797 71.42480469 C-33.54594419 70.2115065 -38.36635474 69.41322666 -43.20703125 68.578125 C-57.28642568 66.00994241 -73.17992418 61.72877218 -82.1875 49.8125 C-85.5649638 44.35930324 -87.83420995 39.28948423 -88.1875 32.8125 C-88.249375 32.16152344 -88.31125 31.51054688 -88.375 30.83984375 C-88.95204519 20.90384685 -85.56976953 11.23197978 -79.08984375 3.73828125 C-58.66023515 -16.94302684 -22.93793771 -15.74172195 0 0 Z " fill="#262324" transform="translate(1371.1875,806.1875)"/>
<path d="M0 0 C5.94 0 11.88 0 18 0 C21.92728956 8.44846194 25.12991318 17.14959538 28.375 25.875 C29.01314269 27.58552521 29.65149562 29.29597201 30.29003906 31.00634766 C31.33878917 33.81632634 32.38704126 36.62648716 33.43408203 39.43710327 C36.03999891 46.43219591 38.65609074 53.42343605 41.27664185 60.41305542 C43.02519903 65.07708016 44.77118328 69.74206673 46.51650047 74.40730476 C47.75163155 77.70858715 48.98774767 81.00949276 50.22625732 84.30950928 C51.62847397 88.04611622 53.02534622 91.78470103 54.421875 95.5234375 C54.84004486 96.63553589 55.25821472 97.74763428 55.6890564 98.89343262 C58.03969268 105.20081543 60.16561866 111.52292721 62 118 C62.66 118 63.32 118 64 118 C64.11866928 117.3054924 64.23733856 116.6109848 64.35960388 115.89543152 C65.06914447 112.68737618 66.10045846 109.75292981 67.24633789 106.6730957 C67.47466781 106.05632367 67.70299772 105.43955164 67.93824673 104.80408955 C68.69608291 102.75994992 69.45931182 100.71786966 70.22265625 98.67578125 C70.76139989 97.2264572 71.29984588 95.77702247 71.8380127 94.32748413 C73.27756909 90.45341041 74.72206149 86.58119543 76.16783524 82.70943832 C77.06067465 80.31739037 77.95219069 77.9248536 78.8432312 75.53213501 C86.03101747 56.23106092 93.24514492 36.93988585 100.5625 17.6875 C100.89492706 16.81082672 101.22735413 15.93415344 101.56985474 15.03091431 C102.482216 12.62746393 103.39842157 10.22552597 104.31640625 7.82421875 C104.57869019 7.13290863 104.84097412 6.44159851 105.11120605 5.7293396 C106.88426154 1.11573846 106.88426154 1.11573846 108 0 C110.86267567 -0.07325168 113.700719 -0.09238205 116.5625 -0.0625 C117.36880859 -0.05798828 118.17511719 -0.05347656 119.00585938 -0.04882812 C121.00393756 -0.03700518 123.00197783 -0.01906914 125 0 C122.40968647 7.98548412 119.5074008 15.84772063 116.58203125 23.71484375 C116.04689713 25.15701524 115.51185489 26.59922082 114.97689819 28.04145813 C113.55206682 31.88112633 112.12503217 35.71997178 110.69726181 39.55854797 C109.80940104 41.9458325 108.92205494 44.3333078 108.03482056 46.7208252 C99.65761476 69.26027477 91.22066954 91.77506648 82.59606934 114.22123718 C80.53063744 119.60083091 78.49113983 124.98983649 76.4609375 130.3828125 C55.6588736 185.5724324 55.6588736 185.5724324 40.984375 193.0234375 C32.21568954 196.46151921 22.84733234 195.72225611 14 193 C14 188.05 14 183.1 14 178 C15.21816406 178.04640625 16.43632812 178.0928125 17.69140625 178.140625 C19.31507948 178.17816658 20.93877945 178.21456417 22.5625 178.25 C23.76229492 178.30027344 23.76229492 178.30027344 24.98632812 178.3515625 C30.87390428 178.44768619 34.198794 177.46147554 39 174 C44.17032009 168.45280009 46.66570779 160.32470598 49.4375 153.375 C49.80415771 152.48047119 50.17081543 151.58594238 50.54858398 150.66430664 C50.88188721 149.79281982 51.21519043 148.92133301 51.55859375 148.0234375 C51.86079834 147.24919434 52.16300293 146.47495117 52.47436523 145.67724609 C53.75430268 139.15806632 51.61541464 133.23882738 49.17578125 127.25390625 C48.88207642 126.51067612 48.58837158 125.76744598 48.2857666 125.00169373 C47.64276372 123.37737198 46.99555347 121.75471086 46.34463501 120.13354492 C44.9104676 116.56103861 43.49700031 112.98044891 42.0821991 109.40023804 C41.30781435 107.44088019 40.53240518 105.48192695 39.75605774 103.52334595 C35.17260518 91.94739421 30.70853797 80.32562053 26.23822021 68.70562744 C19.10523467 50.16609443 11.9539574 31.63522039 4.59106445 13.18554688 C3.88663208 11.4134082 3.88663208 11.4134082 3.16796875 9.60546875 C2.56891724 8.10729614 2.56891724 8.10729614 1.95776367 6.57885742 C1 4 1 4 0 0 Z " fill="#252223" transform="translate(2037,799)"/>
<path d="M0 0 C5.61 0 11.22 0 17 0 C17.00879936 1.92773254 17.00879936 1.92773254 17.01777649 3.89440918 C17.07504128 16.01814349 17.14782287 28.14169908 17.23571491 40.26525116 C17.28040238 46.49778444 17.31966234 52.7302526 17.34643555 58.96289062 C17.37248433 64.9800803 17.41289854 70.99701914 17.46318626 77.01405334 C17.4798442 79.30726497 17.49136514 81.60051996 17.49761391 83.89378357 C17.50726637 87.11109584 17.53534056 90.32776793 17.56762695 93.54492188 C17.56547432 94.96049377 17.56547432 94.96049377 17.5632782 96.40466309 C17.69927494 106.01553621 20.98631638 113.50511352 27 121 C34.64425919 127.75539185 44.9212148 128.47486733 54.70703125 128.21875 C65.35541159 127.51138428 74.36628785 123.63371215 82 116 C90.00227011 104.94924604 94.28145229 91.69044845 94.31884766 78.10546875 C94.32889328 77.2557399 94.3389389 76.40601105 94.34928894 75.53053284 C94.37993574 72.74952815 94.39710419 69.96861891 94.4140625 67.1875 C94.43278906 65.24836415 94.45236357 63.30923632 94.4727478 61.37011719 C94.52391779 56.28705591 94.56362425 51.20396826 94.60089111 46.12078857 C94.64102595 40.92551225 94.69207492 35.73034421 94.7421875 30.53515625 C94.83876754 20.35683961 94.92221963 10.17847769 95 0 C100.28 0 105.56 0 111 0 C111 46.2 111 92.4 111 140 C105.72 140 100.44 140 95 140 C94.505 131.09 94.505 131.09 94 122 C92.4325 123.670625 90.865 125.34125 89.25 127.0625 C78.68344316 137.81143026 65.42397096 144.13491875 50.1875 144.3125 C48.12382055 144.23514321 46.06081603 144.13339496 44 144 C43.19949219 143.96777344 42.39898438 143.93554688 41.57421875 143.90234375 C29.94326147 143.09664689 19.23001733 137.72247516 11.25 129.3125 C-1.14228481 114.10900244 -0.43304875 94.38981819 -0.29296875 75.87890625 C-0.28736114 73.68074333 -0.28309656 71.48257661 -0.28010559 69.28440857 C-0.26874848 63.54862796 -0.23936166 57.81308172 -0.20599365 52.07739258 C-0.175094 46.20462207 -0.16155807 40.33181305 -0.14648438 34.45898438 C-0.11448179 22.97255429 -0.06339825 11.48629677 0 0 Z " fill="#262324" transform="translate(2341,799)"/>
<path d="M0 0 C6.76287757 5.89861207 11.36277669 13.44123744 13.4453125 22.1328125 C13.61758079 22.73979603 13.78984907 23.34677956 13.96733761 23.97215652 C14.47725102 26.27718861 14.56833637 28.31647672 14.56556702 30.67596436 C14.56762901 32.03468407 14.56762901 32.03468407 14.56973267 33.42085266 C14.56433975 34.90007454 14.56433975 34.90007454 14.55883789 36.40917969 C14.55898392 37.45339584 14.55912994 38.497612 14.5592804 39.57347107 C14.55858363 43.02556433 14.55080223 46.47760366 14.54296875 49.9296875 C14.54110373 52.32293671 14.53968022 54.71618631 14.53868103 57.10943604 C14.53486246 63.40917006 14.52503777 69.70888104 14.51397705 76.00860596 C14.50374877 82.43672372 14.49918037 88.8648452 14.49414062 95.29296875 C14.48341494 107.90626013 14.4663464 120.5195344 14.4453125 133.1328125 C9.1653125 133.1328125 3.8853125 133.1328125 -1.5546875 133.1328125 C-1.56277435 131.89999039 -1.57086121 130.66716827 -1.57919312 129.39698792 C-1.65679373 117.75922991 -1.74456802 106.1215868 -1.84221458 94.48397923 C-1.89208688 88.50146857 -1.9384177 82.51897479 -1.9765625 76.53637695 C-2.01352982 70.75913126 -2.05992076 64.98203001 -2.11275101 59.20490837 C-2.1312342 57.00462321 -2.14636439 54.80430716 -2.15803146 52.6039753 C-2.17499807 49.51391035 -2.20405801 46.42417184 -2.23583984 43.33422852 C-2.23800003 42.43151215 -2.24016022 41.52879578 -2.24238586 40.59872437 C-2.37426422 30.5126176 -4.32957735 20.49711817 -10.8984375 12.49609375 C-18.72591458 5.25567745 -30.58335087 4.85948844 -40.63671875 4.984375 C-49.75372028 5.44815821 -59.31220396 9.33688992 -66.1171875 15.50390625 C-75.72787893 26.39428214 -78.65955827 38.83551796 -78.76000977 52.98388672 C-78.77485916 54.28730263 -78.77485916 54.28730263 -78.79000854 55.61705017 C-78.82146039 58.47383957 -78.84631613 61.33064557 -78.87109375 64.1875 C-78.89167738 66.17433084 -78.91267422 68.16115744 -78.93406677 70.14797974 C-78.98914192 75.36589107 -79.03861516 80.58384097 -79.08691406 85.80181885 C-79.13723564 91.13093479 -79.19286598 96.45999505 -79.24804688 101.7890625 C-79.35545031 112.23693326 -79.45644369 122.68485159 -79.5546875 133.1328125 C-85.1646875 133.1328125 -90.7746875 133.1328125 -96.5546875 133.1328125 C-96.5546875 86.9328125 -96.5546875 40.7328125 -96.5546875 -6.8671875 C-90.9446875 -6.8671875 -85.3346875 -6.8671875 -79.5546875 -6.8671875 C-79.2246875 -0.9271875 -78.8946875 5.0128125 -78.5546875 11.1328125 C-76.481875 8.9053125 -76.481875 8.9053125 -74.3671875 6.6328125 C-53.97188685 -13.73359963 -23.65490515 -17.28905911 0 0 Z " fill="#282526" transform="translate(818.5546875,805.8671875)"/>
<path d="M0 0 C5.28 0 10.56 0 16 0 C16.00142502 1.20474976 16.00285004 2.40949951 16.00431824 3.65075684 C16.02106763 15.06568343 16.06408232 26.48025716 16.13209057 37.89499664 C16.1662207 43.76191713 16.19144873 49.62858106 16.19555664 55.49560547 C16.19986966 61.16930486 16.22857955 66.84242689 16.27343178 72.51594543 C16.28631136 74.66857018 16.29074878 76.82126436 16.28615379 78.97392273 C16.24693889 100.12366625 16.24693889 100.12366625 24.6875 119.1875 C31.86048278 126.24927374 40.97094959 128.11704834 50.6875 128.25 C61.19344701 128.13952737 70.73825831 125.7683257 79 119 C82.05396845 115.55043978 84.57685659 111.91301117 87 108 C87.42152344 107.3296875 87.84304688 106.659375 88.27734375 105.96875 C95.01121805 93.97483049 94.46763368 79.9929885 94.51171875 66.69921875 C94.52859744 64.76722598 94.54675188 62.83524399 94.56611633 60.90327454 C94.61327634 55.86137255 94.64330439 50.81951423 94.66955566 45.77746582 C94.69953429 40.61522806 94.74600442 35.45314032 94.79101562 30.29101562 C94.87666124 20.19407238 94.94264967 10.09714364 95 0 C100.28 0 105.56 0 111 0 C111 46.2 111 92.4 111 140 C105.72 140 100.44 140 95 140 C94.505 131.09 94.505 131.09 94 122 C92.4325 123.670625 90.865 125.34125 89.25 127.0625 C78.75858885 137.73498758 65.56480312 144.06516367 50.4375 144.375 C48.28974234 144.2891937 46.14318566 144.16425875 44 144 C42.41058594 143.89365234 42.41058594 143.89365234 40.7890625 143.78515625 C29.64430725 142.58432911 18.35330095 137.88832773 10.74609375 129.4140625 C-0.95156219 113.24146436 -0.29044193 96.0046314 -0.1953125 76.85546875 C-0.19157568 74.63202543 -0.18873188 72.40858045 -0.18673706 70.18513489 C-0.17915324 64.3737624 -0.15955064 58.56249216 -0.1373291 52.75115967 C-0.11675672 46.80482363 -0.10771113 40.85847085 -0.09765625 34.91210938 C-0.07629915 23.27469501 -0.04222765 11.63735606 0 0 Z " fill="#242122" transform="translate(570,799)"/>
<path d="M0 0 C9.03709933 7.87160041 14.31786007 16.44274089 15.18054581 28.52957344 C15.24414612 31.30302913 15.24765393 34.06988397 15.22705078 36.84399414 C15.22734283 37.88894043 15.22763489 38.93388672 15.22793579 40.01049805 C15.22655182 43.43547108 15.21103463 46.86022162 15.1953125 50.28515625 C15.19157906 52.67125835 15.18873365 55.057362 15.18673706 57.44346619 C15.17912672 63.70205979 15.15950061 69.96055952 15.1373291 76.21911621 C15.11681458 82.61416352 15.10772337 89.0092261 15.09765625 95.40429688 C15.07625222 107.936239 15.04214777 120.46811167 15 133 C9.72 133 4.44 133 -1 133 C-1.00586624 131.77383972 -1.01173248 130.54767944 -1.01777649 129.28436279 C-1.07515352 117.69165172 -1.14799292 106.09912554 -1.23571491 94.50660324 C-1.28031655 88.54771037 -1.31959504 82.58888426 -1.34643555 76.62988281 C-1.37257046 70.8720247 -1.41304449 65.11442492 -1.46318626 59.3567276 C-1.47978628 57.16730224 -1.49134307 54.97783227 -1.49761391 52.78835297 C-1.00701154 30.80452766 -1.00701154 30.80452766 -11 12 C-20.90504147 5.02028166 -33.22462014 3.93676028 -45 5 C-56.72206137 7.66548165 -65.47117112 14.01973294 -72 24 C-76.87826894 32.09487753 -78.29488461 40.11765418 -78.31884766 49.4453125 C-78.32889328 50.35356277 -78.3389389 51.26181305 -78.34928894 52.19758606 C-78.37996274 55.17338478 -78.3971119 58.1490942 -78.4140625 61.125 C-78.43278687 63.19865682 -78.45236122 65.27230612 -78.4727478 67.34594727 C-78.52394087 72.78411414 -78.56363511 78.22230567 -78.60089111 83.6605835 C-78.64101134 89.21779417 -78.69206703 94.77490336 -78.7421875 100.33203125 C-78.83879487 111.22128275 -78.92324806 122.11059171 -79 133 C-84.28 133 -89.56 133 -95 133 C-95 86.8 -95 40.6 -95 -7 C-89.72 -7 -84.44 -7 -79 -7 C-79 -1.06 -79 4.88 -79 11 C-77.865625 9.989375 -76.73125 8.97875 -75.5625 7.9375 C-74.04590371 6.62010637 -72.52489312 5.30778104 -71 4 C-70.30261719 3.401875 -69.60523438 2.80375 -68.88671875 2.1875 C-48.94630898 -14.14395078 -21.02552228 -16.10465537 0 0 Z " fill="#252223" transform="translate(1750,806)"/>
<path d="M0 0 C5.28 0 10.56 0 16 0 C16 12.54 16 25.08 16 38 C24.58 38 33.16 38 42 38 C42 42.62 42 47.24 42 52 C33.42 52 24.84 52 16 52 C16.06299026 65.27424128 16.13846233 78.54825221 16.23571491 91.82228756 C16.28038161 97.98641075 16.31964611 104.1504684 16.34643555 110.31469727 C16.37250511 116.26705403 16.41293391 122.21915811 16.46318626 128.17135811 C16.47983018 130.43862317 16.49135982 132.70593191 16.49761391 134.97324944 C16.5072817 138.15683151 16.53537395 141.33977074 16.56762695 144.52319336 C16.56619186 145.45396194 16.56475677 146.38473053 16.5632782 147.34370422 C16.64511068 153.08085127 17.08373519 158.92393582 20 164 C26.72054738 168.24619549 36.50908783 165.98241471 44 165 C44 169.62 44 174.24 44 179 C20.59061489 184.18152398 20.59061489 184.18152398 10 179 C3.51854815 174.03858846 1.51871303 167.75998446 0 160 C-0.36287269 156.2686599 -0.382222 152.58376658 -0.34057617 148.8371582 C-0.34101425 147.78216629 -0.34145233 146.72717438 -0.34190369 145.64021301 C-0.33983312 142.19353975 -0.31658418 138.74736831 -0.29296875 135.30078125 C-0.28736664 132.89511887 -0.28309945 130.48945305 -0.28010559 128.08378601 C-0.26870534 121.78242378 -0.23927981 115.48127223 -0.20599365 109.17999268 C-0.17518855 102.73786264 -0.16157801 96.29569824 -0.14648438 89.85351562 C-0.11440532 77.23557009 -0.06167693 64.61783561 0 52 C-6.6 52 -13.2 52 -20 52 C-20 47.38 -20 42.76 -20 38 C-13.4 38 -6.8 38 0 38 C0 25.46 0 12.92 0 0 Z " fill="#252223" transform="translate(1430,761)"/>
<path d="M0 0 C0.99 0 1.98 0 3 0 C3.10018279 4.07088917 3.17207471 8.14128401 3.21972656 12.21313477 C3.2396267 13.593145 3.2667574 14.97307337 3.30175781 16.3527832 C3.5779834 27.53585749 2.85992477 37.78247889 -5.125 46.3125 C-16.58683253 58.09167968 -31.71857366 62.01241698 -47.8125 62.3125 C-57.9974594 62.32305072 -64.96687505 59.73532884 -72.375 52.73046875 C-77.70537509 47.05413182 -78.37088814 41.14730549 -78.28125 33.62890625 C-77.5487653 26.78220899 -74.29293181 21.33058057 -69 17 C-58.30551423 9.00904195 -45.29940079 7.57727181 -32.34301758 6.35351562 C-24.58007006 5.61606319 -17.00789359 4.55534552 -9.375 2.9375 C-8.5512085 2.76299316 -7.72741699 2.58848633 -6.87866211 2.40869141 C-3.13155702 1.84747668 -3.13155702 1.84747668 0 0 Z " fill="#FDFDFD" transform="translate(1590,866)"/>
<path d="M0 0 C9.64486961 8.81021743 14.31320953 20.58080137 15.90625 33.35546875 C15.90625 35.66546875 15.90625 37.97546875 15.90625 40.35546875 C-14.45375 40.35546875 -44.81375 40.35546875 -76.09375 40.35546875 C-73.86183983 24.73209758 -68.8935653 8.80899053 -55.9609375 -1.3359375 C-38.96138337 -13.24985096 -16.45435693 -12.92403781 0 0 Z " fill="#FBFBFB" transform="translate(1128.09375,819.64453125)"/>
<path d="M0 0 C9.32145914 8.39955658 12.51671345 20.4577758 14.02734375 32.4765625 C14.02734375 34.7865625 14.02734375 37.0965625 14.02734375 39.4765625 C-16.00265625 39.4765625 -46.03265625 39.4765625 -76.97265625 39.4765625 C-74.81124306 24.34667015 -69.9573587 8.78422468 -57.97265625 -1.5234375 C-39.84516978 -14.72552849 -17.50318395 -13.51731038 0 0 Z " fill="#FBFBFB" transform="translate(426.97265625,820.5234375)"/>
<path d="M0 0 C5.61 0 11.22 0 17 0 C17 64.02 17 128.04 17 194 C11.39 194 5.78 194 0 194 C0 129.98 0 65.96 0 0 Z " fill="#221F20" transform="translate(3108,745)"/>
<path d="M0 0 C10.6425 -0.0928125 10.6425 -0.0928125 21.5 -0.1875 C24.80547852 -0.22846802 24.80547852 -0.22846802 28.17773438 -0.27026367 C58.21680721 -0.48668422 58.21680721 -0.48668422 67.44921875 6.37109375 C72.06746561 11.22199788 74.26726671 16.85369211 74.625 23.5 C74.24782416 30.89683738 71.25198665 36.53852622 66.3125 41.9375 C56.86843498 47.8177669 46.06467762 48.15542408 35.25390625 48.09765625 C34.35667847 48.09664917 33.45945068 48.09564209 32.53503418 48.09460449 C29.21084296 48.08940627 25.88667008 48.07544521 22.5625 48.0625 C15.116875 48.041875 7.67125 48.02125 0 48 C0 32.16 0 16.32 0 0 Z " fill="#1E4A89" transform="translate(2084,368)"/>
<path d="M0 0 C0 5.94 0 11.88 0 18 C-2.3925 18.20625 -4.785 18.4125 -7.25 18.625 C-16.30932421 19.62294335 -23.71192503 22.55089622 -30.875 28.3125 C-43.90452677 44.79101915 -45.438487 61.96817373 -45.51171875 82.28125 C-45.52861361 84.07443429 -45.54677007 85.86760709 -45.56611633 87.6607666 C-45.6131016 92.32285973 -45.64324081 96.98490628 -45.66955566 101.64715576 C-45.69962472 106.42762454 -45.74606262 111.20793337 -45.79101562 115.98828125 C-45.8764612 125.32545436 -45.94254599 134.66261267 -46 144 C-51.28 144 -56.56 144 -62 144 C-62 97.8 -62 51.6 -62 4 C-56.72 4 -51.44 4 -46 4 C-45.67 11.92 -45.34 19.84 -45 28 C-44.154375 26.35 -43.30875 24.7 -42.4375 23 C-36.44970757 12.09015805 -29.15308847 5.19462185 -17.15625 1.55859375 C-11.27806103 0.03580204 -6.13821347 0 0 0 Z " fill="#232021" transform="translate(2557,795)"/>
<path d="M0 0 C0 5.94 0 11.88 0 18 C-3.526875 18.2784375 -3.526875 18.2784375 -7.125 18.5625 C-16.82968983 19.61657493 -26.60829555 22.9030041 -33.5 30.1875 C-34.81756301 31.95885959 -34.81756301 31.95885959 -36 34 C-36.51949219 34.86367188 -37.03898437 35.72734375 -37.57421875 36.6171875 C-45.11959578 50.39252473 -45.45901474 64.46345383 -45.51171875 79.7421875 C-45.52860322 81.60549065 -45.54675839 83.46878267 -45.56611633 85.33206177 C-45.61321383 90.18817667 -45.64328173 95.04424646 -45.66955566 99.9005127 C-45.69956654 104.87517201 -45.74602523 109.84967635 -45.79101562 114.82421875 C-45.87658974 124.54941502 -45.9426127 134.27459653 -46 144 C-51.28 144 -56.56 144 -62 144 C-62 97.8 -62 51.6 -62 4 C-56.72 4 -51.44 4 -46 4 C-45.67 11.59 -45.34 19.18 -45 27 C-43.7625 24.525 -43.7625 24.525 -42.5 22 C-36.95506932 11.95464885 -29.81455596 5.97536277 -19 2 C-12.59435968 0.49108359 -6.57987832 0 0 0 Z " fill="#242122" transform="translate(1258,795)"/>
<path d="M0 0 C0 5.61 0 11.22 0 17 C-2.26875 17.2475 -4.5375 17.495 -6.875 17.75 C-17.94948812 19.16900853 -26.46582416 22.36889435 -34 31 C-44.59987415 46.69151675 -45.2888324 64.23503449 -45.4140625 82.55078125 C-45.43281594 84.30340951 -45.4523923 86.05602914 -45.4727478 87.80863953 C-45.52363456 92.37705345 -45.56349008 96.94549652 -45.60089111 101.51403809 C-45.64120641 106.19367419 -45.6921718 110.87319368 -45.7421875 115.55273438 C-45.83843085 124.70174833 -45.92201046 133.85081222 -46 143 C-51.28 143 -56.56 143 -62 143 C-62 96.8 -62 50.6 -62 3 C-56.72 3 -51.44 3 -46 3 C-45.67 11.25 -45.34 19.5 -45 28 C-43.35 24.7 -41.7 21.4 -40 18 C-33.99045681 9.57103034 -25.66891545 2.37374545 -15.29296875 0.234375 C-10.20106946 -0.28609171 -5.11089533 -0.10647699 0 0 Z " fill="#242121" transform="translate(3076,796)"/>
<path d="M0 0 C6.36873908 -0.09222631 12.73512716 -0.17174648 19.10400391 -0.21972656 C21.26684454 -0.2397439 23.42963173 -0.2669663 25.59228516 -0.30175781 C28.71530406 -0.35071247 31.8376026 -0.37306817 34.9609375 -0.390625 C36.39280899 -0.42159271 36.39280899 -0.42159271 37.85360718 -0.45318604 C46.42187601 -0.45599921 53.68013006 1.51510175 60 7.5 C64.48528844 12.24405508 65.30955052 15.81696223 65.375 22.375 C65.40335938 23.66148437 65.43171875 24.94796875 65.4609375 26.2734375 C64.77932666 31.78408786 62.18556151 34.75660622 58.4375 38.6875 C48.22984764 46.43454483 33.34270027 44.33705583 21.3125 44.1875 C10.7628125 44.0946875 10.7628125 44.0946875 0 44 C0 29.48 0 14.96 0 0 Z " fill="#1E4989" transform="translate(2084,278)"/>
<path d="M0 0 C0.66 0 1.32 0 2 0 C2.35191406 1.2375 2.70382813 2.475 3.06640625 3.75 C6.13567516 14.52616941 9.24415812 25.29006672 12.390625 36.04394531 C14.55711007 43.45723728 16.68472324 50.88092767 18.78759766 58.3125 C20.04900141 62.74910283 21.34888503 67.17009311 22.70703125 71.578125 C22.98603271 72.48723633 23.26503418 73.39634766 23.55249023 74.33300781 C24.08616421 76.06344844 24.62569762 77.79209698 25.17211914 79.51855469 C25.4118042 80.29618164 25.65148926 81.07380859 25.8984375 81.875 C26.11161621 82.55304688 26.32479492 83.23109375 26.54443359 83.9296875 C27 86 27 86 27 91 C9.84 91 -7.32 91 -25 91 C-22.7498942 79.74947101 -22.7498942 79.74947101 -21.4140625 75.046875 C-21.12273438 74.01433594 -20.83140625 72.98179687 -20.53125 71.91796875 C-20.2321875 70.87253906 -19.933125 69.82710938 -19.625 68.75 C-19.33367188 67.72003906 -19.04234375 66.69007813 -18.7421875 65.62890625 C-17.83274518 62.41793664 -16.91720181 59.20876118 -16 56 C-15.70351562 54.96149902 -15.40703125 53.92299805 -15.1015625 52.85302734 C-14.26981766 49.94062081 -13.43748273 47.02838358 -12.60491943 44.11621094 C-11.39762905 39.8927045 -10.19107958 35.66898634 -8.984375 31.4453125 C-8.45052353 29.57682215 -7.91666934 27.70833257 -7.3828125 25.83984375 C-7.11500977 24.90253418 -6.84720703 23.96522461 -6.57128906 22.99951172 C-4.38085938 15.33300781 -2.19042969 7.66650391 0 0 Z " fill="#214C8B" transform="translate(2391,298)"/>
</svg>
