<?xml version="1.0" encoding="UTF-8"?>
<svg version="1.1" xmlns="http://www.w3.org/2000/svg" width="2211" height="770">
<path d="M0 0 C1.32067474 0.00090637 1.32067474 0.00090637 2.66802979 0.00183105 C99.78735252 0.18214179 191.08744764 37.76715603 275.0625 115.4375 C279.46768507 119.86524323 283.66156591 124.41376821 287.6875 129.1875 C288.45964844 130.07050781 289.23179687 130.95351562 290.02734375 131.86328125 C341.96178252 191.58251364 372.04572919 265.89563612 380.6875 344.1875 C380.7920752 345.0842041 380.89665039 345.9809082 381.00439453 346.90478516 C382.10154906 357.74482896 381.93145698 368.67902399 381.9375 379.5625 C381.93851212 381.19921158 381.93851212 381.19921158 381.93954468 382.86898804 C381.9222653 400.49540404 381.28653169 417.72707835 378.6875 435.1875 C378.51589355 436.34862305 378.34428711 437.50974609 378.16748047 438.70605469 C368.25285733 503.43906334 342.09150391 566.19520044 300.6875 617.1875 C299.55441406 618.60675781 299.55441406 618.60675781 298.3984375 620.0546875 C294.06358678 625.43228582 289.57233347 630.63530306 284.91796875 635.73828125 C283.47011105 637.32813551 282.03439357 638.92916323 280.61328125 640.54296875 C271.64075254 650.70962327 262.08421157 660.47145985 251.6875 669.1875 C250.79546875 669.96867188 249.9034375 670.74984375 248.984375 671.5546875 C189.39896353 723.45755197 104.64498682 762.1875 24.6875 762.1875 C24.6875 664.5075 24.6875 566.8275 24.6875 466.1875 C34.0925 462.2275 34.0925 462.2275 43.6875 458.1875 C64.38484578 445.92984862 79.78392169 427.86310606 86.0625 404.25 C91.63998287 381.96431846 89.04259804 359.41703309 78.05859375 339.1875 C64.66761502 317.31453242 45.98363016 303.59899464 21.39453125 297.0625 C-1.0336572 291.76859672 -24.49634072 295.57524815 -44.421875 306.96484375 C-65.00802901 320.00451902 -79.79270396 339.4489921 -85.22998047 363.36083984 C-89.78326125 386.84313529 -85.07554536 410.45819929 -72.19140625 430.484375 C-70.30302415 433.12596811 -68.36701075 435.67369743 -66.3125 438.1875 C-65.15427734 439.65509766 -65.15427734 439.65509766 -63.97265625 441.15234375 C-61.26974706 444.37194789 -58.24482878 446.98126186 -54.9375 449.5625 C-54.33534668 450.03365234 -53.73319336 450.50480469 -53.11279297 450.99023438 C-44.24543313 457.72933641 -34.72757335 462.28184749 -24.3125 466.1875 C-24.3125 563.8675 -24.3125 661.5475 -24.3125 762.1875 C-52.57070896 759.83264925 -52.57070896 759.83264925 -62.8125 758.0625 C-64.04967773 757.85077148 -65.28685547 757.63904297 -66.56152344 757.42089844 C-98.01804719 751.80845468 -128.20993558 742.41389695 -157.3125 729.1875 C-158.15554687 728.81044922 -158.99859375 728.43339844 -159.8671875 728.04492188 C-207.19209381 706.79186745 -254.99168712 672.75176414 -287.359375 631.6328125 C-289.15634544 629.38300551 -291.03643336 627.2913214 -293 625.1875 C-340.18073166 572.63890067 -368.83618328 499.53785747 -377.3125 430.1875 C-377.44170334 429.13567032 -377.44170334 429.13567032 -377.57351685 428.06259155 C-379.41406826 412.58630838 -379.67259915 397.1972246 -379.625 381.625 C-379.62317719 380.38771149 -379.62135437 379.15042297 -379.61947632 377.87564087 C-379.5754156 360.12319169 -379.24626664 342.7305166 -376.3125 325.1875 C-376.13557617 324.08422363 -375.95865234 322.98094727 -375.77636719 321.84423828 C-369.22148506 281.67152807 -357.12955194 243.2426879 -338.31005859 207.10888672 C-337.27308625 205.1115856 -336.25548687 203.10508716 -335.23828125 201.09765625 C-326.96866522 184.94694224 -317.15732493 169.72436593 -306.3125 155.1875 C-305.70607666 154.37273193 -305.70607666 154.37273193 -305.08740234 153.54150391 C-288.31841403 131.1230348 -269.03086363 108.48999208 -246.921875 91.23828125 C-244.49809376 89.33336336 -242.16831131 87.34591074 -239.8449707 85.32055664 C-174.71169688 28.841145 -85.44618613 -0.10869736 0 0 Z " fill="#00B6F0" transform="translate(379.3125,-0.1875)"/>
<path d="M0 0 C317.07205475 0 317.07205475 0 341.5 7.125 C343.02681396 7.56332153 343.02681396 7.56332153 344.58447266 8.01049805 C379.1241696 18.31288342 411.03304399 36.82399089 437.28125 61.46875 C439.57912963 63.60815518 441.91658807 65.6601899 444.3125 67.6875 C448.28229048 71.15396326 451.65321593 74.935132 455 79 C455.43860352 79.52625977 455.87720703 80.05251953 456.32910156 80.59472656 C491.67962772 123.13358713 498.01477092 166.31283259 498.17623901 220.21398926 C498.18366776 222.50542464 498.1942794 224.7968522 498.20828247 227.08825684 C498.38876232 259.67215375 498.38876232 259.67215375 493.875 274.9375 C493.66327148 275.67145996 493.45154297 276.40541992 493.23339844 277.16162109 C486.05982688 300.87678276 472.93956425 322.08046096 456 340 C454.75283203 341.36125 454.75283203 341.36125 453.48046875 342.75 C444.96063759 351.73137399 435.49506886 358.33195173 424 363 C425.0725 363.391875 426.145 363.78375 427.25 364.1875 C428.83459144 364.78835919 430.41776982 365.39295021 432 366 C433.39412109 366.52787109 433.39412109 366.52787109 434.81640625 367.06640625 C446.24470586 371.58110609 455.63132647 378.13031424 465 386 C465.7115625 386.5878125 466.423125 387.175625 467.15625 387.78125 C471.93200072 391.82226984 475.98854946 396.21107245 480 401 C481.10794922 402.25876953 481.10794922 402.25876953 482.23828125 403.54296875 C512.40050753 438.41954618 529.86249758 482.85696719 531 529 C531.02046387 529.80904785 531.04092773 530.6180957 531.06201172 531.45166016 C531.99423202 574.43394982 523.51534352 616.98747484 503 655 C502.07960938 656.7325 502.07960938 656.7325 501.140625 658.5 C473.08562111 709.50909798 425.21754562 743.6847935 370 760 C256.83983994 792.23191626 71.19610503 770 0 770 C0 515.9 0 261.8 0 0 Z M155 141 C155 301.38 155 461.76 155 627 C249.88456278 637.10458011 249.88456278 637.10458011 342 606 C342.56976562 605.57589844 343.13953125 605.15179687 343.7265625 604.71484375 C361.0866274 591.26285033 371.29882661 567.97469022 374.15258789 546.66992188 C376.79855139 523.03536869 371.0839948 498.29606854 356.5625 479.125 C355.38883079 477.73817563 354.2009292 476.36328658 353 475 C352.35804688 474.20464844 351.71609375 473.40929687 351.0546875 472.58984375 C336.96706361 455.77306763 316.47105882 446.06729412 295 443 C273.88 443 252.76 443 231 443 C231 395.81 231 348.62 231 300 C247.83 300 264.66 300 282 300 C302.65472843 296.55754526 318.60691136 289.07581851 331.29296875 271.89453125 C344.6860852 251.26460891 346.52155596 226.73816877 342 203 C337.08759269 182.10196973 324.43178268 163.19934443 306.12011719 151.78222656 C263.46909049 126.55439488 189.88569182 141 155 141 Z " fill="#261D77" transform="translate(1449,0)"/>
<path d="M0 0 C1.54820435 0.00323273 1.54820435 0.00323273 3.12768555 0.00653076 C19.27273486 0.06048899 35.04567736 0.63822875 51 3.3125 C52.21429687 3.51117676 53.42859375 3.70985352 54.6796875 3.91455078 C115.48300977 14.12235199 171.69887499 39.42504499 218 80.3125 C218.63164063 80.80492188 219.26328125 81.29734375 219.9140625 81.8046875 C221 83.3125 221 83.3125 220.73436069 85.55121136 C219.92027042 88.61229325 218.7562047 91.16881698 217.33616638 94.00093079 C216.7710434 95.13530075 216.20592041 96.26967072 215.62367249 97.43841553 C214.9945876 98.6859692 214.36538758 99.93346483 213.73608398 101.1809082 C213.07533074 102.50156812 212.41510641 103.82249278 211.75537109 105.1436615 C209.96539678 108.72447037 208.16805016 112.30153271 206.36935687 115.87796807 C204.48991523 119.61808967 202.61727564 123.36161369 200.74391174 127.1047821 C197.19652922 134.19022523 193.64304021 141.27258734 190.08734709 148.35386294 C186.039134 156.41674982 181.99774027 164.48304772 177.95691574 172.54963934 C169.64552601 189.14106641 161.32558219 205.72819056 153 222.3125 C149.09543479 222.3125 148.258129 221.13758094 145.3125 218.625 C144.32894531 217.8 143.34539062 216.975 142.33203125 216.125 C141.79529785 215.67125 141.25856445 215.2175 140.70556641 214.75 C93.46747488 174.93638951 41.91894186 150.37468521 -21.49755859 155.7746582 C-45.51338979 158.17728255 -68.11209117 166.02057429 -84.1796875 184.8203125 C-93.07078665 196.9931049 -96.44600051 211.28702089 -94.40039062 226.19311523 C-92.07109226 239.94169788 -85.37908459 252.0824531 -76 262.3125 C-75.39800781 262.99441406 -74.79601563 263.67632812 -74.17578125 264.37890625 C-61.71495971 277.72792052 -44.77919563 285.29652328 -27.96484375 291.54296875 C-26.39895004 292.12729927 -26.39895004 292.12729927 -24.80142212 292.72343445 C-14.58050469 296.51201401 -4.27958568 300.05412239 6.0375061 303.57019043 C56.20315704 320.70875345 105.49582825 340.47229754 147 374.3125 C147.51449707 374.7254834 148.02899414 375.1384668 148.55908203 375.56396484 C164.98436318 388.81339109 180.87358245 403.97902121 193 421.3125 C193.47695312 421.98812988 193.95390625 422.66375977 194.4453125 423.35986328 C215.57550754 453.5313437 229.471087 486.6120656 234 523.3125 C234.13148438 524.33859375 234.26296875 525.3646875 234.3984375 526.421875 C240.12881231 581.24762317 221.19705176 635.69042508 187.45947266 678.51416016 C184.52671896 682.12785433 181.40471651 685.5487552 178.21875 688.94140625 C176.29801148 690.99402646 174.48754319 693.0925953 172.6875 695.25 C138.2200874 734.59563109 83.90877155 759.21508126 33 767.3125 C31.62908203 767.53679687 31.62908203 767.53679687 30.23046875 767.765625 C-55.01254998 781.14612591 -141.93490293 752.46143081 -213 706.3125 C-213.88099365 705.74523193 -213.88099365 705.74523193 -214.77978516 705.16650391 C-218.22844566 702.94077266 -221.62271622 700.64485395 -225 698.3125 C-225.61198242 697.89210449 -226.22396484 697.47170898 -226.85449219 697.03857422 C-242.91483229 685.97712212 -258.24517321 674.05914836 -273 661.3125 C-274.43720943 660.08299359 -275.8746515 658.85375898 -277.3125 657.625 C-278.199375 656.861875 -279.08625 656.09875 -280 655.3125 C-279.4184617 651.23203958 -277.27224958 648.80222084 -274.75 645.625 C-273.83412309 644.46003802 -272.91878531 643.29465203 -272.00390625 642.12890625 C-271.5155127 641.51031738 -271.02711914 640.89172852 -270.52392578 640.25439453 C-267.87810895 636.8829067 -265.2857683 633.47067403 -262.6875 630.0625 C-261.57698865 628.60924834 -260.46630986 627.15612461 -259.35546875 625.703125 C-258.80036621 624.97673828 -258.24526367 624.25035156 -257.67333984 623.50195312 C-254.94966736 619.93821008 -252.22478337 616.37539369 -249.5 612.8125 C-248.41666062 611.39583796 -247.33332729 609.97917128 -246.25 608.5625 C-213.74999999 566.06249999 -213.74999999 566.06249999 -212.12255859 563.93432617 C-211.04733908 562.52825744 -209.97214347 561.12217042 -208.89697266 559.71606445 C-206.06470123 556.01209334 -203.23192376 552.30851064 -200.3984375 548.60546875 C-199.51381836 547.44917969 -199.51381836 547.44917969 -198.61132812 546.26953125 C-197.48257525 544.79415348 -196.35367702 543.3188869 -195.22460938 541.84375 C-192.80218238 538.67713873 -190.38298826 535.50899114 -188 532.3125 C-183.33762998 533.80830727 -180.00907479 536.53301442 -176.3125 539.625 C-130.77691174 576.84115003 -66.22000624 619.99792586 -4.7265625 614.09423828 C19.30716822 611.2547049 43.32791371 603.43464338 59.375 584.375 C70.19435448 570.03769591 72.7412487 554.56683986 70.6015625 537.05078125 C67.99320244 524.63566487 61.21610461 512.83025341 53 503.3125 C52.4745459 502.68005371 51.9490918 502.04760742 51.40771484 501.39599609 C47.38724047 496.63557185 43.16047796 492.68190821 38.1875 488.9375 C37.45466797 488.38296143 36.72183594 487.82842285 35.96679688 487.25708008 C28.10165642 481.44593074 19.74949637 476.65653991 11 472.3125 C9.87271484 471.75135498 8.74542969 471.19020996 7.58398438 470.61206055 C-4.31236051 464.80467771 -16.58504325 459.99922386 -28.90124512 455.16513062 C-50.22651239 446.77944179 -71.35555213 438.14188479 -92.03088379 428.25402832 C-94.10478974 427.26239503 -96.18073082 426.27510594 -98.25683594 425.28808594 C-173.75105129 389.33761115 -173.75105129 389.33761115 -194 370.3125 C-194.6909375 369.67828125 -195.381875 369.0440625 -196.09375 368.390625 C-201.23542087 363.48266644 -205.65650797 357.92388518 -210 352.3125 C-210.43940918 351.75433594 -210.87881836 351.19617188 -211.33154297 350.62109375 C-235.51044844 319.55465679 -248.94765401 280.84795937 -255 242.3125 C-255.15686279 241.31657837 -255.15686279 241.31657837 -255.31689453 240.30053711 C-262.20114131 188.77952388 -245.4306372 139.62291501 -214.88671875 98.46484375 C-212.97584949 96.03174935 -211.00666393 93.66718313 -209 91.3125 C-208.06479103 90.19296984 -207.12992083 89.07315663 -206.1953125 87.953125 C-196.97644891 76.97630772 -187.24876829 67.23673958 -176 58.3125 C-174.81664062 57.32830078 -174.81664062 57.32830078 -173.609375 56.32421875 C-139.43199236 28.08826852 -96.41451708 11.78710422 -53.1875 4.0625 C-52.3423584 3.91127686 -51.4972168 3.76005371 -50.62646484 3.60424805 C-33.7759483 0.7841512 -17.06416448 -0.06440217 0 0 Z " fill="#261D77" transform="translate(1148,-0.3125)"/>
<path d="M0 0 C53.46 0 106.92 0 162 0 C162 254.1 162 508.2 162 770 C108.54 770 55.08 770 0 770 C0 515.9 0 261.8 0 0 Z " fill="#261D77" transform="translate(2049,0)"/>
</svg>
